<?xml version="1.0" encoding="utf-8"?>
<svg xmlns="http://www.w3.org/2000/svg" xmlns:xlink="http://www.w3.org/1999/xlink" xml:space="preserve" width="888" height="888" viewBox="0 0 888 888"><g fill="#000000">
<g transform="translate(240,48) scale(4.12)"><path d="M6,5.5H3C1.6,5.5,0.5,4.4,0.5,3v0c0-1.4,1.1-2.5,2.5-2.5h3V5.5z"/></g>
<g transform="translate(264,48) scale(4.12)"><path d="M3,5.5H0v-5h3c1.4,0,2.5,1.1,2.5,2.5v0C5.5,4.4,4.4,5.5,3,5.5z"/></g>
<g transform="translate(312,48) scale(4.12)"><circle cx="3" cy="3" r="2.5"/></g>
<g transform="translate(360,48) scale(4.12)"><path d="M6,5.5H3C1.6,5.5,0.5,4.4,0.5,3v0c0-1.4,1.1-2.5,2.5-2.5h3V5.5z"/></g>
<g transform="translate(384,48) scale(4.12)"><rect y="0.5" width="6" height="5"/></g>
<g transform="translate(408,48) scale(4.12)"><rect y="0.5" width="6" height="5"/></g>
<g transform="translate(432,48) scale(4.12)"><path d="M3,5.5H0v-5h3c1.4,0,2.5,1.1,2.5,2.5v0C5.5,4.4,4.4,5.5,3,5.5z"/></g>
<g transform="translate(504,48) scale(4.12)"><path d="M6,5.5H3C1.6,5.5,0.5,4.4,0.5,3v0c0-1.4,1.1-2.5,2.5-2.5h3V5.5z"/></g>
<g transform="translate(528,48) scale(4.12)"><rect y="0.5" width="6" height="5"/></g>
<g transform="translate(552,48) scale(4.12)"><path d="M3,5.5H0v-5h3c1.4,0,2.5,1.1,2.5,2.5v0C5.5,4.4,4.4,5.5,3,5.5z"/></g>
<g transform="translate(600,48) scale(4.12)"><path d="M6,5.5H3C1.6,5.5,0.5,4.4,0.5,3v0c0-1.4,1.1-2.5,2.5-2.5h3V5.5z"/></g>
<g transform="translate(624,48) scale(4.12)"><path d="M3,5.5H0v-5h3c1.4,0,2.5,1.1,2.5,2.5v0C5.5,4.4,4.4,5.5,3,5.5z"/></g>
<g transform="translate(288,72) scale(4.12)"><circle cx="3" cy="3" r="2.5"/></g>
<g transform="translate(384,72) scale(4.12)"><path d="M6,5.5H3C1.6,5.5,0.5,4.4,0.5,3v0c0-1.4,1.1-2.5,2.5-2.5h3V5.5z"/></g>
<g transform="translate(408,72) scale(4.12)"><path d="M3,5.5H0v-5h3c1.4,0,2.5,1.1,2.5,2.5v0C5.5,4.4,4.4,5.5,3,5.5z"/></g>
<g transform="translate(480,72) scale(4.12)"><path d="M6,5.5H3C1.6,5.5,0.5,4.4,0.5,3v0c0-1.4,1.1-2.5,2.5-2.5h3V5.5z"/></g>
<g transform="translate(504,72) scale(4.12)"><path d="M3,5.5H0v-5h3c1.4,0,2.5,1.1,2.5,2.5v0C5.5,4.4,4.4,5.5,3,5.5z"/></g>
<g transform="translate(552,72) scale(4.12)"><path d="M6,5.5H3C1.6,5.5,0.5,4.4,0.5,3v0c0-1.4,1.1-2.5,2.5-2.5h3V5.5z"/></g>
<g transform="translate(576,72) scale(4.12)"><path d="M3,5.5H0v-5h3c1.4,0,2.5,1.1,2.5,2.5v0C5.5,4.4,4.4,5.5,3,5.5z"/></g>
<g transform="translate(288,96) scale(4.12)"><path d="M6,5.5H3C1.6,5.5,0.5,4.4,0.5,3v0c0-1.4,1.1-2.5,2.5-2.5h3V5.5z"/></g>
<g transform="translate(312,96) scale(4.12)"><path d="M3,5.5H0v-5h3c1.4,0,2.5,1.1,2.5,2.5v0C5.5,4.4,4.4,5.5,3,5.5z"/></g>
<g transform="translate(360,96) scale(4.12)"><path d="M6,5.5H3C1.6,5.5,0.5,4.4,0.5,3v0c0-1.4,1.1-2.5,2.5-2.5h3V5.5z"/></g>
<g transform="translate(384,96) scale(4.12)"><path d="M3,5.5H0v-5h3c1.4,0,2.5,1.1,2.5,2.5v0C5.5,4.4,4.4,5.5,3,5.5z"/></g>
<g transform="translate(432,96) scale(4.12)"><circle cx="3" cy="3" r="2.5"/></g>
<g transform="translate(480,96) scale(4.12)"><circle cx="3" cy="3" r="2.5"/></g>
<g transform="translate(528,96) scale(4.12)"><circle cx="3" cy="3" r="2.5"/></g>
<g transform="translate(576,96) scale(4.12)"><circle cx="3" cy="3" r="2.5"/></g>
<g transform="translate(264,120) scale(4.12)"><circle cx="3" cy="3" r="2.5"/></g>
<g transform="translate(312,120) scale(4.12)"><path d="M6,5.5H3C1.6,5.5,0.5,4.4,0.5,3v0c0-1.4,1.1-2.5,2.5-2.5h3V5.5z"/></g>
<g transform="translate(336,120) scale(4.12)"><rect y="0.5" width="6" height="5"/></g>
<g transform="translate(360,120) scale(4.12)"><rect y="0.5" width="6" height="5"/></g>
<g transform="translate(384,120) scale(4.12)"><rect y="0.5" width="6" height="5"/></g>
<g transform="translate(408,120) scale(4.12)"><path d="M3,5.5H0v-5h3c1.4,0,2.5,1.1,2.5,2.5v0C5.5,4.4,4.4,5.5,3,5.5z"/></g>
<g transform="translate(480,120) scale(4.12)"><path d="M6,5.5H3C1.6,5.5,0.5,4.4,0.5,3v0c0-1.4,1.1-2.5,2.5-2.5h3V5.5z"/></g>
<g transform="translate(504,120) scale(4.12)"><rect y="0.5" width="6" height="5"/></g>
<g transform="translate(528,120) scale(4.12)"><path d="M3,5.5H0v-5h3c1.4,0,2.5,1.1,2.5,2.5v0C5.5,4.4,4.4,5.5,3,5.5z"/></g>
<g transform="translate(576,120) scale(4.12)"><circle cx="3" cy="3" r="2.5"/></g>
<g transform="translate(240,144) scale(4.12)"><circle cx="3" cy="3" r="2.5"/></g>
<g transform="translate(360,144) scale(4.12)"><path d="M6,5.5H3C1.6,5.5,0.5,4.4,0.5,3v0c0-1.4,1.1-2.5,2.5-2.5h3V5.5z"/></g>
<g transform="translate(384,144) scale(4.12)"><rect y="0.5" width="6" height="5"/></g>
<g transform="translate(408,144) scale(4.12)"><path d="M3,5.5H0v-5h3c1.4,0,2.5,1.1,2.5,2.5v0C5.5,4.4,4.4,5.5,3,5.5z"/></g>
<g transform="translate(480,144) scale(4.12)"><circle cx="3" cy="3" r="2.5"/></g>
<g transform="translate(528,144) scale(4.12)"><path d="M6,5.5H3C1.6,5.5,0.5,4.4,0.5,3v0c0-1.4,1.1-2.5,2.5-2.5h3V5.5z"/></g>
<g transform="translate(552,144) scale(4.12)"><path d="M3,5.5H0v-5h3c1.4,0,2.5,1.1,2.5,2.5v0C5.5,4.4,4.4,5.5,3,5.5z"/></g>
<g transform="translate(600,144) scale(4.12)"><path d="M6,5.5H3C1.6,5.5,0.5,4.4,0.5,3v0c0-1.4,1.1-2.5,2.5-2.5h3V5.5z"/></g>
<g transform="translate(624,144) scale(4.12)"><path d="M3,5.5H0v-5h3c1.4,0,2.5,1.1,2.5,2.5v0C5.5,4.4,4.4,5.5,3,5.5z"/></g>
<g transform="translate(240,168) scale(4.12)"><circle cx="3" cy="3" r="2.5"/></g>
<g transform="translate(312,168) scale(4.12)"><path d="M6,5.5H3C1.6,5.5,0.5,4.4,0.5,3v0c0-1.4,1.1-2.5,2.5-2.5h3V5.5z"/></g>
<g transform="translate(336,168) scale(4.12)"><path d="M3,5.5H0v-5h3c1.4,0,2.5,1.1,2.5,2.5v0C5.5,4.4,4.4,5.5,3,5.5z"/></g>
<g transform="translate(456,168) scale(4.12)"><circle cx="3" cy="3" r="2.5"/></g>
<g transform="translate(528,168) scale(4.12)"><path d="M6,5.5H3C1.6,5.5,0.5,4.4,0.5,3v0c0-1.4,1.1-2.5,2.5-2.5h3V5.5z"/></g>
<g transform="translate(552,168) scale(4.12)"><path d="M3,5.5H0v-5h3c1.4,0,2.5,1.1,2.5,2.5v0C5.5,4.4,4.4,5.5,3,5.5z"/></g>
<g transform="translate(240,192) scale(4.12)"><circle cx="3" cy="3" r="2.5"/></g>
<g transform="translate(288,192) scale(4.12)"><circle cx="3" cy="3" r="2.5"/></g>
<g transform="translate(336,192) scale(4.12)"><circle cx="3" cy="3" r="2.5"/></g>
<g transform="translate(384,192) scale(4.12)"><circle cx="3" cy="3" r="2.5"/></g>
<g transform="translate(432,192) scale(4.12)"><circle cx="3" cy="3" r="2.5"/></g>
<g transform="translate(480,192) scale(4.12)"><circle cx="3" cy="3" r="2.5"/></g>
<g transform="translate(528,192) scale(4.12)"><circle cx="3" cy="3" r="2.5"/></g>
<g transform="translate(576,192) scale(4.12)"><circle cx="3" cy="3" r="2.5"/></g>
<g transform="translate(624,192) scale(4.12)"><circle cx="3" cy="3" r="2.5"/></g>
<g transform="translate(288,216) scale(4.12)"><path d="M6,5.5H3C1.6,5.5,0.5,4.4,0.5,3v0c0-1.4,1.1-2.5,2.5-2.5h3V5.5z"/></g>
<g transform="translate(312,216) scale(4.12)"><path d="M3,5.5H0v-5h3c1.4,0,2.5,1.1,2.5,2.5v0C5.5,4.4,4.4,5.5,3,5.5z"/></g>
<g transform="translate(360,216) scale(4.12)"><circle cx="3" cy="3" r="2.5"/></g>
<g transform="translate(432,216) scale(4.12)"><circle cx="3" cy="3" r="2.5"/></g>
<g transform="translate(504,216) scale(4.12)"><path d="M6,5.5H3C1.6,5.5,0.5,4.4,0.5,3v0c0-1.4,1.1-2.5,2.5-2.5h3V5.5z"/></g>
<g transform="translate(528,216) scale(4.12)"><rect y="0.5" width="6" height="5"/></g>
<g transform="translate(552,216) scale(4.12)"><path d="M3,5.5H0v-5h3c1.4,0,2.5,1.1,2.5,2.5v0C5.5,4.4,4.4,5.5,3,5.5z"/></g>
<g transform="translate(600,216) scale(4.12)"><path d="M6,5.5H3C1.6,5.5,0.5,4.4,0.5,3v0c0-1.4,1.1-2.5,2.5-2.5h3V5.5z"/></g>
<g transform="translate(624,216) scale(4.12)"><path d="M3,5.5H0v-5h3c1.4,0,2.5,1.1,2.5,2.5v0C5.5,4.4,4.4,5.5,3,5.5z"/></g>
<g transform="translate(72,240) scale(4.12)"><path d="M6,5.5H3C1.6,5.5,0.5,4.4,0.5,3v0c0-1.4,1.1-2.5,2.5-2.5h3V5.5z"/></g>
<g transform="translate(96,240) scale(4.12)"><rect y="0.5" width="6" height="5"/></g>
<g transform="translate(120,240) scale(4.12)"><rect y="0.5" width="6" height="5"/></g>
<g transform="translate(144,240) scale(4.12)"><rect y="0.5" width="6" height="5"/></g>
<g transform="translate(168,240) scale(4.12)"><rect y="0.5" width="6" height="5"/></g>
<g transform="translate(192,240) scale(4.12)"><rect y="0.5" width="6" height="5"/></g>
<g transform="translate(216,240) scale(4.12)"><path d="M3,5.5H0v-5h3c1.4,0,2.5,1.1,2.5,2.5v0C5.5,4.4,4.4,5.5,3,5.5z"/></g>
<g transform="translate(312,240) scale(4.12)"><path d="M6,5.5H3C1.6,5.5,0.5,4.4,0.5,3v0c0-1.4,1.1-2.5,2.5-2.5h3V5.5z"/></g>
<g transform="translate(336,240) scale(4.12)"><rect y="0.5" width="6" height="5"/></g>
<g transform="translate(360,240) scale(4.12)"><path d="M3,5.5H0v-5h3c1.4,0,2.5,1.1,2.5,2.5v0C5.5,4.4,4.4,5.5,3,5.5z"/></g>
<g transform="translate(432,240) scale(4.12)"><path d="M6,5.5H3C1.6,5.5,0.5,4.4,0.5,3v0c0-1.4,1.1-2.5,2.5-2.5h3V5.5z"/></g>
<g transform="translate(456,240) scale(4.12)"><rect y="0.5" width="6" height="5"/></g>
<g transform="translate(480,240) scale(4.12)"><path d="M3,5.5H0v-5h3c1.4,0,2.5,1.1,2.5,2.5v0C5.5,4.4,4.4,5.5,3,5.5z"/></g>
<g transform="translate(528,240) scale(4.12)"><path d="M6,5.5H3C1.6,5.5,0.5,4.4,0.5,3v0c0-1.4,1.1-2.5,2.5-2.5h3V5.5z"/></g>
<g transform="translate(552,240) scale(4.12)"><path d="M3,5.5H0v-5h3c1.4,0,2.5,1.1,2.5,2.5v0C5.5,4.4,4.4,5.5,3,5.5z"/></g>
<g transform="translate(624,240) scale(4.12)"><circle cx="3" cy="3" r="2.5"/></g>
<g transform="translate(696,240) scale(4.12)"><path d="M6,5.5H3C1.6,5.5,0.5,4.4,0.5,3v0c0-1.4,1.1-2.5,2.5-2.5h3V5.5z"/></g>
<g transform="translate(720,240) scale(4.12)"><path d="M3,5.5H0v-5h3c1.4,0,2.5,1.1,2.5,2.5v0C5.5,4.4,4.4,5.5,3,5.5z"/></g>
<g transform="translate(816,240) scale(4.12)"><circle cx="3" cy="3" r="2.5"/></g>
<g transform="translate(48,264) scale(4.12)"><circle cx="3" cy="3" r="2.5"/></g>
<g transform="translate(120,264) scale(4.12)"><circle cx="3" cy="3" r="2.5"/></g>
<g transform="translate(240,264) scale(4.12)"><path d="M6,5.5H3C1.6,5.5,0.5,4.4,0.5,3v0c0-1.4,1.1-2.5,2.5-2.5h3V5.5z"/></g>
<g transform="translate(264,264) scale(4.12)"><path d="M3,5.5H0v-5h3c1.4,0,2.5,1.1,2.5,2.5v0C5.5,4.4,4.4,5.5,3,5.5z"/></g>
<g transform="translate(384,264) scale(4.12)"><circle cx="3" cy="3" r="2.5"/></g>
<g transform="translate(456,264) scale(4.12)"><path d="M6,5.5H3C1.6,5.5,0.5,4.4,0.5,3v0c0-1.4,1.1-2.5,2.5-2.5h3V5.5z"/></g>
<g transform="translate(480,264) scale(4.12)"><rect y="0.5" width="6" height="5"/></g>
<g transform="translate(504,264) scale(4.12)"><path d="M3,5.5H0v-5h3c1.4,0,2.5,1.1,2.5,2.5v0C5.5,4.4,4.4,5.5,3,5.5z"/></g>
<g transform="translate(600,264) scale(4.12)"><circle cx="3" cy="3" r="2.5"/></g>
<g transform="translate(672,264) scale(4.12)"><path d="M6,5.5H3C1.6,5.5,0.5,4.4,0.5,3v0c0-1.4,1.1-2.5,2.5-2.5h3V5.5z"/></g>
<g transform="translate(696,264) scale(4.12)"><path d="M3,5.5H0v-5h3c1.4,0,2.5,1.1,2.5,2.5v0C5.5,4.4,4.4,5.5,3,5.5z"/></g>
<g transform="translate(744,264) scale(4.12)"><path d="M6,5.5H3C1.6,5.5,0.5,4.4,0.5,3v0c0-1.4,1.1-2.5,2.5-2.5h3V5.5z"/></g>
<g transform="translate(768,264) scale(4.12)"><rect y="0.5" width="6" height="5"/></g>
<g transform="translate(792,264) scale(4.12)"><rect y="0.5" width="6" height="5"/></g>
<g transform="translate(816,264) scale(4.12)"><path d="M3,5.5H0v-5h3c1.4,0,2.5,1.1,2.5,2.5v0C5.5,4.4,4.4,5.5,3,5.5z"/></g>
<g transform="translate(48,288) scale(4.12)"><path d="M6,5.5H3C1.6,5.5,0.5,4.4,0.5,3v0c0-1.4,1.1-2.5,2.5-2.5h3V5.5z"/></g>
<g transform="translate(72,288) scale(4.12)"><rect y="0.5" width="6" height="5"/></g>
<g transform="translate(96,288) scale(4.12)"><rect y="0.5" width="6" height="5"/></g>
<g transform="translate(120,288) scale(4.12)"><path d="M3,5.5H0v-5h3c1.4,0,2.5,1.1,2.5,2.5v0C5.5,4.4,4.4,5.5,3,5.5z"/></g>
<g transform="translate(168,288) scale(4.12)"><path d="M6,5.5H3C1.6,5.5,0.5,4.4,0.5,3v0c0-1.4,1.1-2.5,2.5-2.5h3V5.5z"/></g>
<g transform="translate(192,288) scale(4.12)"><rect y="0.5" width="6" height="5"/></g>
<g transform="translate(216,288) scale(4.12)"><rect y="0.5" width="6" height="5"/></g>
<g transform="translate(240,288) scale(4.12)"><rect y="0.5" width="6" height="5"/></g>
<g transform="translate(264,288) scale(4.12)"><rect y="0.5" width="6" height="5"/></g>
<g transform="translate(288,288) scale(4.12)"><rect y="0.5" width="6" height="5"/></g>
<g transform="translate(312,288) scale(4.12)"><rect y="0.5" width="6" height="5"/></g>
<g transform="translate(336,288) scale(4.12)"><path d="M3,5.5H0v-5h3c1.4,0,2.5,1.1,2.5,2.5v0C5.5,4.4,4.4,5.5,3,5.5z"/></g>
<g transform="translate(408,288) scale(4.12)"><path d="M6,5.5H3C1.6,5.5,0.5,4.4,0.5,3v0c0-1.4,1.1-2.5,2.5-2.5h3V5.5z"/></g>
<g transform="translate(432,288) scale(4.12)"><rect y="0.5" width="6" height="5"/></g>
<g transform="translate(456,288) scale(4.12)"><path d="M3,5.5H0v-5h3c1.4,0,2.5,1.1,2.5,2.5v0C5.5,4.4,4.4,5.5,3,5.5z"/></g>
<g transform="translate(528,288) scale(4.12)"><path d="M6,5.5H3C1.6,5.5,0.5,4.4,0.5,3v0c0-1.4,1.1-2.5,2.5-2.5h3V5.5z"/></g>
<g transform="translate(552,288) scale(4.12)"><path d="M3,5.5H0v-5h3c1.4,0,2.5,1.1,2.5,2.5v0C5.5,4.4,4.4,5.5,3,5.5z"/></g>
<g transform="translate(672,288) scale(4.12)"><circle cx="3" cy="3" r="2.5"/></g>
<g transform="translate(720,288) scale(4.12)"><circle cx="3" cy="3" r="2.5"/></g>
<g transform="translate(768,288) scale(4.12)"><path d="M6,5.5H3C1.6,5.5,0.5,4.4,0.5,3v0c0-1.4,1.1-2.5,2.5-2.5h3V5.5z"/></g>
<g transform="translate(792,288) scale(4.12)"><rect y="0.5" width="6" height="5"/></g>
<g transform="translate(816,288) scale(4.12)"><path d="M3,5.5H0v-5h3c1.4,0,2.5,1.1,2.5,2.5v0C5.5,4.4,4.4,5.5,3,5.5z"/></g>
<g transform="translate(96,312) scale(4.12)"><path d="M6,5.5H3C1.6,5.5,0.5,4.4,0.5,3v0c0-1.4,1.1-2.5,2.5-2.5h3V5.5z"/></g>
<g transform="translate(120,312) scale(4.12)"><path d="M3,5.5H0v-5h3c1.4,0,2.5,1.1,2.5,2.5v0C5.5,4.4,4.4,5.5,3,5.5z"/></g>
<g transform="translate(216,312) scale(4.12)"><path d="M6,5.5H3C1.6,5.5,0.5,4.4,0.5,3v0c0-1.4,1.1-2.5,2.5-2.5h3V5.5z"/></g>
<g transform="translate(240,312) scale(4.12)"><path d="M3,5.5H0v-5h3c1.4,0,2.5,1.1,2.5,2.5v0C5.5,4.4,4.4,5.5,3,5.5z"/></g>
<g transform="translate(288,312) scale(4.12)"><circle cx="3" cy="3" r="2.5"/></g>
<g transform="translate(336,312) scale(4.12)"><circle cx="3" cy="3" r="2.5"/></g>
<g transform="translate(384,312) scale(4.12)"><path d="M6,5.5H3C1.6,5.5,0.5,4.4,0.5,3v0c0-1.4,1.1-2.5,2.5-2.5h3V5.5z"/></g>
<g transform="translate(408,312) scale(4.12)"><path d="M3,5.5H0v-5h3c1.4,0,2.5,1.1,2.5,2.5v0C5.5,4.4,4.4,5.5,3,5.5z"/></g>
<g transform="translate(456,312) scale(4.12)"><path d="M6,5.5H3C1.6,5.5,0.5,4.4,0.5,3v0c0-1.4,1.1-2.5,2.5-2.5h3V5.5z"/></g>
<g transform="translate(480,312) scale(4.12)"><path d="M3,5.5H0v-5h3c1.4,0,2.5,1.1,2.5,2.5v0C5.5,4.4,4.4,5.5,3,5.5z"/></g>
<g transform="translate(552,312) scale(4.12)"><circle cx="3" cy="3" r="2.5"/></g>
<g transform="translate(672,312) scale(4.12)"><circle cx="3" cy="3" r="2.5"/></g>
<g transform="translate(720,312) scale(4.12)"><path d="M6,5.5H3C1.6,5.5,0.5,4.4,0.5,3v0c0-1.4,1.1-2.5,2.5-2.5h3V5.5z"/></g>
<g transform="translate(744,312) scale(4.12)"><rect y="0.5" width="6" height="5"/></g>
<g transform="translate(768,312) scale(4.12)"><rect y="0.5" width="6" height="5"/></g>
<g transform="translate(792,312) scale(4.12)"><path d="M3,5.5H0v-5h3c1.4,0,2.5,1.1,2.5,2.5v0C5.5,4.4,4.4,5.5,3,5.5z"/></g>
<g transform="translate(72,336) scale(4.12)"><path d="M6,5.5H3C1.6,5.5,0.5,4.4,0.5,3v0c0-1.4,1.1-2.5,2.5-2.5h3V5.5z"/></g>
<g transform="translate(96,336) scale(4.12)"><path d="M3,5.5H0v-5h3c1.4,0,2.5,1.1,2.5,2.5v0C5.5,4.4,4.4,5.5,3,5.5z"/></g>
<g transform="translate(144,336) scale(4.12)"><circle cx="3" cy="3" r="2.5"/></g>
<g transform="translate(192,336) scale(4.12)"><path d="M6,5.5H3C1.6,5.5,0.5,4.4,0.5,3v0c0-1.4,1.1-2.5,2.5-2.5h3V5.5z"/></g>
<g transform="translate(216,336) scale(4.12)"><rect y="0.5" width="6" height="5"/></g>
<g transform="translate(240,336) scale(4.12)"><path d="M3,5.5H0v-5h3c1.4,0,2.5,1.1,2.5,2.5v0C5.5,4.4,4.4,5.5,3,5.5z"/></g>
<g transform="translate(336,336) scale(4.12)"><circle cx="3" cy="3" r="2.5"/></g>
<g transform="translate(528,336) scale(4.12)"><circle cx="3" cy="3" r="2.5"/></g>
<g transform="translate(600,336) scale(4.12)"><path d="M6,5.5H3C1.6,5.5,0.5,4.4,0.5,3v0c0-1.4,1.1-2.5,2.5-2.5h3V5.5z"/></g>
<g transform="translate(624,336) scale(4.12)"><rect y="0.5" width="6" height="5"/></g>
<g transform="translate(648,336) scale(4.12)"><path d="M3,5.5H0v-5h3c1.4,0,2.5,1.1,2.5,2.5v0C5.5,4.4,4.4,5.5,3,5.5z"/></g>
<g transform="translate(696,336) scale(4.12)"><path d="M6,5.5H3C1.6,5.5,0.5,4.4,0.5,3v0c0-1.4,1.1-2.5,2.5-2.5h3V5.5z"/></g>
<g transform="translate(720,336) scale(4.12)"><rect y="0.5" width="6" height="5"/></g>
<g transform="translate(744,336) scale(4.12)"><path d="M3,5.5H0v-5h3c1.4,0,2.5,1.1,2.5,2.5v0C5.5,4.4,4.4,5.5,3,5.5z"/></g>
<g transform="translate(816,336) scale(4.12)"><circle cx="3" cy="3" r="2.5"/></g>
<g transform="translate(48,360) scale(4.12)"><circle cx="3" cy="3" r="2.5"/></g>
<g transform="translate(96,360) scale(4.12)"><path d="M6,5.5H3C1.6,5.5,0.5,4.4,0.5,3v0c0-1.4,1.1-2.5,2.5-2.5h3V5.5z"/></g>
<g transform="translate(120,360) scale(4.12)"><rect y="0.5" width="6" height="5"/></g>
<g transform="translate(144,360) scale(4.12)"><path d="M3,5.5H0v-5h3c1.4,0,2.5,1.1,2.5,2.5v0C5.5,4.4,4.4,5.5,3,5.5z"/></g>
<g transform="translate(240,360) scale(4.12)"><path d="M6,5.5H3C1.6,5.5,0.5,4.4,0.5,3v0c0-1.4,1.1-2.5,2.5-2.5h3V5.5z"/></g>
<g transform="translate(264,360) scale(4.12)"><path d="M3,5.5H0v-5h3c1.4,0,2.5,1.1,2.5,2.5v0C5.5,4.4,4.4,5.5,3,5.5z"/></g>
<g transform="translate(312,360) scale(4.12)"><circle cx="3" cy="3" r="2.5"/></g>
<g transform="translate(384,360) scale(4.12)"><circle cx="3" cy="3" r="2.5"/></g>
<g transform="translate(432,360) scale(4.12)"><path d="M6,5.5H3C1.6,5.5,0.5,4.4,0.5,3v0c0-1.4,1.1-2.5,2.5-2.5h3V5.5z"/></g>
<g transform="translate(456,360) scale(4.12)"><rect y="0.5" width="6" height="5"/></g>
<g transform="translate(480,360) scale(4.12)"><path d="M3,5.5H0v-5h3c1.4,0,2.5,1.1,2.5,2.5v0C5.5,4.4,4.4,5.5,3,5.5z"/></g>
<g transform="translate(624,360) scale(4.12)"><circle cx="3" cy="3" r="2.5"/></g>
<g transform="translate(720,360) scale(4.12)"><circle cx="3" cy="3" r="2.5"/></g>
<g transform="translate(792,360) scale(4.12)"><path d="M6,5.5H3C1.6,5.5,0.5,4.4,0.5,3v0c0-1.4,1.1-2.5,2.5-2.5h3V5.5z"/></g>
<g transform="translate(816,360) scale(4.12)"><path d="M3,5.5H0v-5h3c1.4,0,2.5,1.1,2.5,2.5v0C5.5,4.4,4.4,5.5,3,5.5z"/></g>
<g transform="translate(120,384) scale(4.12)"><path d="M6,5.5H3C1.6,5.5,0.5,4.4,0.5,3v0c0-1.4,1.1-2.5,2.5-2.5h3V5.5z"/></g>
<g transform="translate(144,384) scale(4.12)"><path d="M3,5.5H0v-5h3c1.4,0,2.5,1.1,2.5,2.5v0C5.5,4.4,4.4,5.5,3,5.5z"/></g>
<g transform="translate(192,384) scale(4.12)"><path d="M6,5.5H3C1.6,5.5,0.5,4.4,0.5,3v0c0-1.4,1.1-2.5,2.5-2.5h3V5.5z"/></g>
<g transform="translate(216,384) scale(4.12)"><rect y="0.5" width="6" height="5"/></g>
<g transform="translate(240,384) scale(4.12)"><rect y="0.5" width="6" height="5"/></g>
<g transform="translate(264,384) scale(4.12)"><path d="M3,5.5H0v-5h3c1.4,0,2.5,1.1,2.5,2.5v0C5.5,4.4,4.4,5.5,3,5.5z"/></g>
<g transform="translate(312,384) scale(4.12)"><path d="M6,5.5H3C1.6,5.5,0.5,4.4,0.5,3v0c0-1.4,1.1-2.5,2.5-2.5h3V5.5z"/></g>
<g transform="translate(336,384) scale(4.12)"><path d="M3,5.5H0v-5h3c1.4,0,2.5,1.1,2.5,2.5v0C5.5,4.4,4.4,5.5,3,5.5z"/></g>
<g transform="translate(408,384) scale(4.12)"><path d="M6,5.5H3C1.6,5.5,0.5,4.4,0.5,3v0c0-1.4,1.1-2.5,2.5-2.5h3V5.5z"/></g>
<g transform="translate(432,384) scale(4.12)"><rect y="0.5" width="6" height="5"/></g>
<g transform="translate(456,384) scale(4.12)"><rect y="0.5" width="6" height="5"/></g>
<g transform="translate(480,384) scale(4.12)"><rect y="0.5" width="6" height="5"/></g>
<g transform="translate(504,384) scale(4.12)"><rect y="0.5" width="6" height="5"/></g>
<g transform="translate(528,384) scale(4.12)"><rect y="0.5" width="6" height="5"/></g>
<g transform="translate(552,384) scale(4.12)"><rect y="0.5" width="6" height="5"/></g>
<g transform="translate(576,384) scale(4.12)"><path d="M3,5.5H0v-5h3c1.4,0,2.5,1.1,2.5,2.5v0C5.5,4.4,4.4,5.5,3,5.5z"/></g>
<g transform="translate(648,384) scale(4.12)"><path d="M6,5.5H3C1.6,5.5,0.5,4.4,0.5,3v0c0-1.4,1.1-2.5,2.5-2.5h3V5.5z"/></g>
<g transform="translate(672,384) scale(4.12)"><path d="M3,5.5H0v-5h3c1.4,0,2.5,1.1,2.5,2.5v0C5.5,4.4,4.4,5.5,3,5.5z"/></g>
<g transform="translate(744,384) scale(4.12)"><circle cx="3" cy="3" r="2.5"/></g>
<g transform="translate(792,384) scale(4.12)"><circle cx="3" cy="3" r="2.5"/></g>
<g transform="translate(48,408) scale(4.12)"><path d="M6,5.5H3C1.6,5.5,0.5,4.4,0.5,3v0c0-1.4,1.1-2.5,2.5-2.5h3V5.5z"/></g>
<g transform="translate(72,408) scale(4.12)"><rect y="0.5" width="6" height="5"/></g>
<g transform="translate(96,408) scale(4.12)"><rect y="0.5" width="6" height="5"/></g>
<g transform="translate(120,408) scale(4.12)"><rect y="0.5" width="6" height="5"/></g>
<g transform="translate(144,408) scale(4.12)"><rect y="0.5" width="6" height="5"/></g>
<g transform="translate(168,408) scale(4.12)"><path d="M3,5.5H0v-5h3c1.4,0,2.5,1.1,2.5,2.5v0C5.5,4.4,4.4,5.5,3,5.5z"/></g>
<g transform="translate(312,408) scale(4.12)"><path d="M6,5.5H3C1.6,5.5,0.5,4.4,0.5,3v0c0-1.4,1.1-2.5,2.5-2.5h3V5.5z"/></g>
<g transform="translate(336,408) scale(4.12)"><rect y="0.5" width="6" height="5"/></g>
<g transform="translate(360,408) scale(4.12)"><path d="M3,5.5H0v-5h3c1.4,0,2.5,1.1,2.5,2.5v0C5.5,4.4,4.4,5.5,3,5.5z"/></g>
<g transform="translate(432,408) scale(4.12)"><path d="M6,5.5H3C1.6,5.5,0.5,4.4,0.5,3v0c0-1.4,1.1-2.5,2.5-2.5h3V5.5z"/></g>
<g transform="translate(456,408) scale(4.12)"><path d="M3,5.5H0v-5h3c1.4,0,2.5,1.1,2.5,2.5v0C5.5,4.4,4.4,5.5,3,5.5z"/></g>
<g transform="translate(552,408) scale(4.12)"><path d="M6,5.5H3C1.6,5.5,0.5,4.4,0.5,3v0c0-1.4,1.1-2.5,2.5-2.5h3V5.5z"/></g>
<g transform="translate(576,408) scale(4.12)"><path d="M3,5.5H0v-5h3c1.4,0,2.5,1.1,2.5,2.5v0C5.5,4.4,4.4,5.5,3,5.5z"/></g>
<g transform="translate(624,408) scale(4.12)"><path d="M6,5.5H3C1.6,5.5,0.5,4.4,0.5,3v0c0-1.4,1.1-2.5,2.5-2.5h3V5.5z"/></g>
<g transform="translate(648,408) scale(4.12)"><rect y="0.5" width="6" height="5"/></g>
<g transform="translate(672,408) scale(4.12)"><rect y="0.5" width="6" height="5"/></g>
<g transform="translate(696,408) scale(4.12)"><path d="M3,5.5H0v-5h3c1.4,0,2.5,1.1,2.5,2.5v0C5.5,4.4,4.4,5.5,3,5.5z"/></g>
<g transform="translate(72,432) scale(4.12)"><circle cx="3" cy="3" r="2.5"/></g>
<g transform="translate(120,432) scale(4.12)"><path d="M6,5.5H3C1.6,5.5,0.5,4.4,0.5,3v0c0-1.4,1.1-2.5,2.5-2.5h3V5.5z"/></g>
<g transform="translate(144,432) scale(4.12)"><rect y="0.5" width="6" height="5"/></g>
<g transform="translate(168,432) scale(4.12)"><rect y="0.5" width="6" height="5"/></g>
<g transform="translate(192,432) scale(4.12)"><rect y="0.5" width="6" height="5"/></g>
<g transform="translate(216,432) scale(4.12)"><rect y="0.5" width="6" height="5"/></g>
<g transform="translate(240,432) scale(4.12)"><rect y="0.5" width="6" height="5"/></g>
<g transform="translate(264,432) scale(4.12)"><path d="M3,5.5H0v-5h3c1.4,0,2.5,1.1,2.5,2.5v0C5.5,4.4,4.4,5.5,3,5.5z"/></g>
<g transform="translate(360,432) scale(4.12)"><path d="M6,5.5H3C1.6,5.5,0.5,4.4,0.5,3v0c0-1.4,1.1-2.5,2.5-2.5h3V5.5z"/></g>
<g transform="translate(384,432) scale(4.12)"><rect y="0.5" width="6" height="5"/></g>
<g transform="translate(408,432) scale(4.12)"><rect y="0.5" width="6" height="5"/></g>
<g transform="translate(432,432) scale(4.12)"><rect y="0.5" width="6" height="5"/></g>
<g transform="translate(456,432) scale(4.12)"><rect y="0.5" width="6" height="5"/></g>
<g transform="translate(480,432) scale(4.12)"><rect y="0.5" width="6" height="5"/></g>
<g transform="translate(504,432) scale(4.12)"><path d="M3,5.5H0v-5h3c1.4,0,2.5,1.1,2.5,2.5v0C5.5,4.4,4.4,5.5,3,5.5z"/></g>
<g transform="translate(576,432) scale(4.12)"><path d="M6,5.5H3C1.6,5.5,0.5,4.4,0.5,3v0c0-1.4,1.1-2.5,2.5-2.5h3V5.5z"/></g>
<g transform="translate(600,432) scale(4.12)"><rect y="0.5" width="6" height="5"/></g>
<g transform="translate(624,432) scale(4.12)"><rect y="0.5" width="6" height="5"/></g>
<g transform="translate(648,432) scale(4.12)"><path d="M3,5.5H0v-5h3c1.4,0,2.5,1.1,2.5,2.5v0C5.5,4.4,4.4,5.5,3,5.5z"/></g>
<g transform="translate(696,432) scale(4.12)"><path d="M6,5.5H3C1.6,5.5,0.5,4.4,0.5,3v0c0-1.4,1.1-2.5,2.5-2.5h3V5.5z"/></g>
<g transform="translate(720,432) scale(4.12)"><path d="M3,5.5H0v-5h3c1.4,0,2.5,1.1,2.5,2.5v0C5.5,4.4,4.4,5.5,3,5.5z"/></g>
<g transform="translate(816,432) scale(4.12)"><circle cx="3" cy="3" r="2.5"/></g>
<g transform="translate(72,456) scale(4.12)"><circle cx="3" cy="3" r="2.5"/></g>
<g transform="translate(120,456) scale(4.12)"><path d="M6,5.5H3C1.6,5.5,0.5,4.4,0.5,3v0c0-1.4,1.1-2.5,2.5-2.5h3V5.5z"/></g>
<g transform="translate(144,456) scale(4.12)"><rect y="0.5" width="6" height="5"/></g>
<g transform="translate(168,456) scale(4.12)"><path d="M3,5.5H0v-5h3c1.4,0,2.5,1.1,2.5,2.5v0C5.5,4.4,4.4,5.5,3,5.5z"/></g>
<g transform="translate(216,456) scale(4.12)"><circle cx="3" cy="3" r="2.5"/></g>
<g transform="translate(336,456) scale(4.12)"><circle cx="3" cy="3" r="2.5"/></g>
<g transform="translate(384,456) scale(4.12)"><circle cx="3" cy="3" r="2.5"/></g>
<g transform="translate(456,456) scale(4.12)"><circle cx="3" cy="3" r="2.5"/></g>
<g transform="translate(552,456) scale(4.12)"><circle cx="3" cy="3" r="2.5"/></g>
<g transform="translate(600,456) scale(4.12)"><circle cx="3" cy="3" r="2.5"/></g>
<g transform="translate(648,456) scale(4.12)"><path d="M6,5.5H3C1.6,5.5,0.5,4.4,0.5,3v0c0-1.4,1.1-2.5,2.5-2.5h3V5.5z"/></g>
<g transform="translate(672,456) scale(4.12)"><rect y="0.5" width="6" height="5"/></g>
<g transform="translate(696,456) scale(4.12)"><path d="M3,5.5H0v-5h3c1.4,0,2.5,1.1,2.5,2.5v0C5.5,4.4,4.4,5.5,3,5.5z"/></g>
<g transform="translate(744,456) scale(4.12)"><path d="M6,5.5H3C1.6,5.5,0.5,4.4,0.5,3v0c0-1.4,1.1-2.5,2.5-2.5h3V5.5z"/></g>
<g transform="translate(768,456) scale(4.12)"><rect y="0.5" width="6" height="5"/></g>
<g transform="translate(792,456) scale(4.12)"><rect y="0.5" width="6" height="5"/></g>
<g transform="translate(816,456) scale(4.12)"><path d="M3,5.5H0v-5h3c1.4,0,2.5,1.1,2.5,2.5v0C5.5,4.4,4.4,5.5,3,5.5z"/></g>
<g transform="translate(72,480) scale(4.12)"><path d="M6,5.5H3C1.6,5.5,0.5,4.4,0.5,3v0c0-1.4,1.1-2.5,2.5-2.5h3V5.5z"/></g>
<g transform="translate(96,480) scale(4.12)"><rect y="0.5" width="6" height="5"/></g>
<g transform="translate(120,480) scale(4.12)"><rect y="0.5" width="6" height="5"/></g>
<g transform="translate(144,480) scale(4.12)"><path d="M3,5.5H0v-5h3c1.4,0,2.5,1.1,2.5,2.5v0C5.5,4.4,4.4,5.5,3,5.5z"/></g>
<g transform="translate(192,480) scale(4.12)"><circle cx="3" cy="3" r="2.5"/></g>
<g transform="translate(264,480) scale(4.12)"><circle cx="3" cy="3" r="2.5"/></g>
<g transform="translate(312,480) scale(4.12)"><circle cx="3" cy="3" r="2.5"/></g>
<g transform="translate(480,480) scale(4.12)"><circle cx="3" cy="3" r="2.5"/></g>
<g transform="translate(576,480) scale(4.12)"><circle cx="3" cy="3" r="2.5"/></g>
<g transform="translate(624,480) scale(4.12)"><circle cx="3" cy="3" r="2.5"/></g>
<g transform="translate(696,480) scale(4.12)"><path d="M6,5.5H3C1.6,5.5,0.5,4.4,0.5,3v0c0-1.4,1.1-2.5,2.5-2.5h3V5.5z"/></g>
<g transform="translate(720,480) scale(4.12)"><path d="M3,5.5H0v-5h3c1.4,0,2.5,1.1,2.5,2.5v0C5.5,4.4,4.4,5.5,3,5.5z"/></g>
<g transform="translate(768,480) scale(4.12)"><path d="M6,5.5H3C1.6,5.5,0.5,4.4,0.5,3v0c0-1.4,1.1-2.5,2.5-2.5h3V5.5z"/></g>
<g transform="translate(792,480) scale(4.12)"><path d="M3,5.5H0v-5h3c1.4,0,2.5,1.1,2.5,2.5v0C5.5,4.4,4.4,5.5,3,5.5z"/></g>
<g transform="translate(48,504) scale(4.12)"><path d="M6,5.5H3C1.6,5.5,0.5,4.4,0.5,3v0c0-1.4,1.1-2.5,2.5-2.5h3V5.5z"/></g>
<g transform="translate(72,504) scale(4.12)"><path d="M3,5.5H0v-5h3c1.4,0,2.5,1.1,2.5,2.5v0C5.5,4.4,4.4,5.5,3,5.5z"/></g>
<g transform="translate(120,504) scale(4.12)"><path d="M6,5.5H3C1.6,5.5,0.5,4.4,0.5,3v0c0-1.4,1.1-2.5,2.5-2.5h3V5.5z"/></g>
<g transform="translate(144,504) scale(4.12)"><rect y="0.5" width="6" height="5"/></g>
<g transform="translate(168,504) scale(4.12)"><path d="M3,5.5H0v-5h3c1.4,0,2.5,1.1,2.5,2.5v0C5.5,4.4,4.4,5.5,3,5.5z"/></g>
<g transform="translate(216,504) scale(4.12)"><circle cx="3" cy="3" r="2.5"/></g>
<g transform="translate(360,504) scale(4.12)"><circle cx="3" cy="3" r="2.5"/></g>
<g transform="translate(408,504) scale(4.12)"><path d="M6,5.5H3C1.6,5.5,0.5,4.4,0.5,3v0c0-1.4,1.1-2.5,2.5-2.5h3V5.5z"/></g>
<g transform="translate(432,504) scale(4.12)"><rect y="0.5" width="6" height="5"/></g>
<g transform="translate(456,504) scale(4.12)"><path d="M3,5.5H0v-5h3c1.4,0,2.5,1.1,2.5,2.5v0C5.5,4.4,4.4,5.5,3,5.5z"/></g>
<g transform="translate(528,504) scale(4.12)"><path d="M6,5.5H3C1.6,5.5,0.5,4.4,0.5,3v0c0-1.4,1.1-2.5,2.5-2.5h3V5.5z"/></g>
<g transform="translate(552,504) scale(4.12)"><path d="M3,5.5H0v-5h3c1.4,0,2.5,1.1,2.5,2.5v0C5.5,4.4,4.4,5.5,3,5.5z"/></g>
<g transform="translate(600,504) scale(4.12)"><circle cx="3" cy="3" r="2.5"/></g>
<g transform="translate(648,504) scale(4.12)"><path d="M6,5.5H3C1.6,5.5,0.5,4.4,0.5,3v0c0-1.4,1.1-2.5,2.5-2.5h3V5.5z"/></g>
<g transform="translate(672,504) scale(4.12)"><rect y="0.5" width="6" height="5"/></g>
<g transform="translate(696,504) scale(4.12)"><rect y="0.5" width="6" height="5"/></g>
<g transform="translate(720,504) scale(4.12)"><rect y="0.5" width="6" height="5"/></g>
<g transform="translate(744,504) scale(4.12)"><rect y="0.5" width="6" height="5"/></g>
<g transform="translate(768,504) scale(4.12)"><rect y="0.5" width="6" height="5"/></g>
<g transform="translate(792,504) scale(4.12)"><path d="M3,5.5H0v-5h3c1.4,0,2.5,1.1,2.5,2.5v0C5.5,4.4,4.4,5.5,3,5.5z"/></g>
<g transform="translate(48,528) scale(4.12)"><circle cx="3" cy="3" r="2.5"/></g>
<g transform="translate(120,528) scale(4.12)"><circle cx="3" cy="3" r="2.5"/></g>
<g transform="translate(168,528) scale(4.12)"><path d="M6,5.5H3C1.6,5.5,0.5,4.4,0.5,3v0c0-1.4,1.1-2.5,2.5-2.5h3V5.5z"/></g>
<g transform="translate(192,528) scale(4.12)"><rect y="0.5" width="6" height="5"/></g>
<g transform="translate(216,528) scale(4.12)"><rect y="0.5" width="6" height="5"/></g>
<g transform="translate(240,528) scale(4.12)"><rect y="0.5" width="6" height="5"/></g>
<g transform="translate(264,528) scale(4.12)"><path d="M3,5.5H0v-5h3c1.4,0,2.5,1.1,2.5,2.5v0C5.5,4.4,4.4,5.5,3,5.5z"/></g>
<g transform="translate(312,528) scale(4.12)"><path d="M6,5.5H3C1.6,5.5,0.5,4.4,0.5,3v0c0-1.4,1.1-2.5,2.5-2.5h3V5.5z"/></g>
<g transform="translate(336,528) scale(4.12)"><rect y="0.5" width="6" height="5"/></g>
<g transform="translate(360,528) scale(4.12)"><rect y="0.5" width="6" height="5"/></g>
<g transform="translate(384,528) scale(4.12)"><rect y="0.5" width="6" height="5"/></g>
<g transform="translate(408,528) scale(4.12)"><path d="M3,5.5H0v-5h3c1.4,0,2.5,1.1,2.5,2.5v0C5.5,4.4,4.4,5.5,3,5.5z"/></g>
<g transform="translate(456,528) scale(4.12)"><circle cx="3" cy="3" r="2.5"/></g>
<g transform="translate(600,528) scale(4.12)"><path d="M6,5.5H3C1.6,5.5,0.5,4.4,0.5,3v0c0-1.4,1.1-2.5,2.5-2.5h3V5.5z"/></g>
<g transform="translate(624,528) scale(4.12)"><rect y="0.5" width="6" height="5"/></g>
<g transform="translate(648,528) scale(4.12)"><path d="M3,5.5H0v-5h3c1.4,0,2.5,1.1,2.5,2.5v0C5.5,4.4,4.4,5.5,3,5.5z"/></g>
<g transform="translate(696,528) scale(4.12)"><path d="M6,5.5H3C1.6,5.5,0.5,4.4,0.5,3v0c0-1.4,1.1-2.5,2.5-2.5h3V5.5z"/></g>
<g transform="translate(720,528) scale(4.12)"><rect y="0.5" width="6" height="5"/></g>
<g transform="translate(744,528) scale(4.12)"><path d="M3,5.5H0v-5h3c1.4,0,2.5,1.1,2.5,2.5v0C5.5,4.4,4.4,5.5,3,5.5z"/></g>
<g transform="translate(816,528) scale(4.12)"><circle cx="3" cy="3" r="2.5"/></g>
<g transform="translate(48,552) scale(4.12)"><path d="M6,5.5H3C1.6,5.5,0.5,4.4,0.5,3v0c0-1.4,1.1-2.5,2.5-2.5h3V5.5z"/></g>
<g transform="translate(72,552) scale(4.12)"><rect y="0.5" width="6" height="5"/></g>
<g transform="translate(96,552) scale(4.12)"><path d="M3,5.5H0v-5h3c1.4,0,2.5,1.1,2.5,2.5v0C5.5,4.4,4.4,5.5,3,5.5z"/></g>
<g transform="translate(144,552) scale(4.12)"><path d="M6,5.5H3C1.6,5.5,0.5,4.4,0.5,3v0c0-1.4,1.1-2.5,2.5-2.5h3V5.5z"/></g>
<g transform="translate(168,552) scale(4.12)"><path d="M3,5.5H0v-5h3c1.4,0,2.5,1.1,2.5,2.5v0C5.5,4.4,4.4,5.5,3,5.5z"/></g>
<g transform="translate(216,552) scale(4.12)"><circle cx="3" cy="3" r="2.5"/></g>
<g transform="translate(360,552) scale(4.12)"><circle cx="3" cy="3" r="2.5"/></g>
<g transform="translate(504,552) scale(4.12)"><circle cx="3" cy="3" r="2.5"/></g>
<g transform="translate(552,552) scale(4.12)"><path d="M6,5.5H3C1.6,5.5,0.5,4.4,0.5,3v0c0-1.4,1.1-2.5,2.5-2.5h3V5.5z"/></g>
<g transform="translate(576,552) scale(4.12)"><path d="M3,5.5H0v-5h3c1.4,0,2.5,1.1,2.5,2.5v0C5.5,4.4,4.4,5.5,3,5.5z"/></g>
<g transform="translate(624,552) scale(4.12)"><path d="M6,5.5H3C1.6,5.5,0.5,4.4,0.5,3v0c0-1.4,1.1-2.5,2.5-2.5h3V5.5z"/></g>
<g transform="translate(648,552) scale(4.12)"><rect y="0.5" width="6" height="5"/></g>
<g transform="translate(672,552) scale(4.12)"><rect y="0.5" width="6" height="5"/></g>
<g transform="translate(696,552) scale(4.12)"><rect y="0.5" width="6" height="5"/></g>
<g transform="translate(720,552) scale(4.12)"><path d="M3,5.5H0v-5h3c1.4,0,2.5,1.1,2.5,2.5v0C5.5,4.4,4.4,5.5,3,5.5z"/></g>
<g transform="translate(768,552) scale(4.12)"><circle cx="3" cy="3" r="2.5"/></g>
<g transform="translate(816,552) scale(4.12)"><circle cx="3" cy="3" r="2.5"/></g>
<g transform="translate(48,576) scale(4.12)"><circle cx="3" cy="3" r="2.5"/></g>
<g transform="translate(192,576) scale(4.12)"><path d="M6,5.5H3C1.6,5.5,0.5,4.4,0.5,3v0c0-1.4,1.1-2.5,2.5-2.5h3V5.5z"/></g>
<g transform="translate(216,576) scale(4.12)"><path d="M3,5.5H0v-5h3c1.4,0,2.5,1.1,2.5,2.5v0C5.5,4.4,4.4,5.5,3,5.5z"/></g>
<g transform="translate(264,576) scale(4.12)"><path d="M6,5.5H3C1.6,5.5,0.5,4.4,0.5,3v0c0-1.4,1.1-2.5,2.5-2.5h3V5.5z"/></g>
<g transform="translate(288,576) scale(4.12)"><rect y="0.5" width="6" height="5"/></g>
<g transform="translate(312,576) scale(4.12)"><path d="M3,5.5H0v-5h3c1.4,0,2.5,1.1,2.5,2.5v0C5.5,4.4,4.4,5.5,3,5.5z"/></g>
<g transform="translate(384,576) scale(4.12)"><circle cx="3" cy="3" r="2.5"/></g>
<g transform="translate(432,576) scale(4.12)"><path d="M6,5.5H3C1.6,5.5,0.5,4.4,0.5,3v0c0-1.4,1.1-2.5,2.5-2.5h3V5.5z"/></g>
<g transform="translate(456,576) scale(4.12)"><rect y="0.5" width="6" height="5"/></g>
<g transform="translate(480,576) scale(4.12)"><path d="M3,5.5H0v-5h3c1.4,0,2.5,1.1,2.5,2.5v0C5.5,4.4,4.4,5.5,3,5.5z"/></g>
<g transform="translate(648,576) scale(4.12)"><circle cx="3" cy="3" r="2.5"/></g>
<g transform="translate(720,576) scale(4.12)"><path d="M6,5.5H3C1.6,5.5,0.5,4.4,0.5,3v0c0-1.4,1.1-2.5,2.5-2.5h3V5.5z"/></g>
<g transform="translate(744,576) scale(4.12)"><path d="M3,5.5H0v-5h3c1.4,0,2.5,1.1,2.5,2.5v0C5.5,4.4,4.4,5.5,3,5.5z"/></g>
<g transform="translate(792,576) scale(4.12)"><circle cx="3" cy="3" r="2.5"/></g>
<g transform="translate(48,600) scale(4.12)"><circle cx="3" cy="3" r="2.5"/></g>
<g transform="translate(240,600) scale(4.12)"><path d="M6,5.5H3C1.6,5.5,0.5,4.4,0.5,3v0c0-1.4,1.1-2.5,2.5-2.5h3V5.5z"/></g>
<g transform="translate(264,600) scale(4.12)"><path d="M3,5.5H0v-5h3c1.4,0,2.5,1.1,2.5,2.5v0C5.5,4.4,4.4,5.5,3,5.5z"/></g>
<g transform="translate(408,600) scale(4.12)"><path d="M6,5.5H3C1.6,5.5,0.5,4.4,0.5,3v0c0-1.4,1.1-2.5,2.5-2.5h3V5.5z"/></g>
<g transform="translate(432,600) scale(4.12)"><rect y="0.5" width="6" height="5"/></g>
<g transform="translate(456,600) scale(4.12)"><rect y="0.5" width="6" height="5"/></g>
<g transform="translate(480,600) scale(4.12)"><path d="M3,5.5H0v-5h3c1.4,0,2.5,1.1,2.5,2.5v0C5.5,4.4,4.4,5.5,3,5.5z"/></g>
<g transform="translate(528,600) scale(4.12)"><path d="M6,5.5H3C1.6,5.5,0.5,4.4,0.5,3v0c0-1.4,1.1-2.5,2.5-2.5h3V5.5z"/></g>
<g transform="translate(552,600) scale(4.12)"><path d="M3,5.5H0v-5h3c1.4,0,2.5,1.1,2.5,2.5v0C5.5,4.4,4.4,5.5,3,5.5z"/></g>
<g transform="translate(600,600) scale(4.12)"><path d="M6,5.5H3C1.6,5.5,0.5,4.4,0.5,3v0c0-1.4,1.1-2.5,2.5-2.5h3V5.5z"/></g>
<g transform="translate(624,600) scale(4.12)"><rect y="0.5" width="6" height="5"/></g>
<g transform="translate(648,600) scale(4.12)"><rect y="0.5" width="6" height="5"/></g>
<g transform="translate(672,600) scale(4.12)"><rect y="0.5" width="6" height="5"/></g>
<g transform="translate(696,600) scale(4.12)"><path d="M3,5.5H0v-5h3c1.4,0,2.5,1.1,2.5,2.5v0C5.5,4.4,4.4,5.5,3,5.5z"/></g>
<g transform="translate(768,600) scale(4.12)"><path d="M6,5.5H3C1.6,5.5,0.5,4.4,0.5,3v0c0-1.4,1.1-2.5,2.5-2.5h3V5.5z"/></g>
<g transform="translate(792,600) scale(4.12)"><path d="M3,5.5H0v-5h3c1.4,0,2.5,1.1,2.5,2.5v0C5.5,4.4,4.4,5.5,3,5.5z"/></g>
<g transform="translate(48,624) scale(4.12)"><circle cx="3" cy="3" r="2.5"/></g>
<g transform="translate(120,624) scale(4.12)"><path d="M6,5.5H3C1.6,5.5,0.5,4.4,0.5,3v0c0-1.4,1.1-2.5,2.5-2.5h3V5.5z"/></g>
<g transform="translate(144,624) scale(4.12)"><path d="M3,5.5H0v-5h3c1.4,0,2.5,1.1,2.5,2.5v0C5.5,4.4,4.4,5.5,3,5.5z"/></g>
<g transform="translate(192,624) scale(4.12)"><circle cx="3" cy="3" r="2.5"/></g>
<g transform="translate(240,624) scale(4.12)"><circle cx="3" cy="3" r="2.5"/></g>
<g transform="translate(312,624) scale(4.12)"><path d="M6,5.5H3C1.6,5.5,0.5,4.4,0.5,3v0c0-1.4,1.1-2.5,2.5-2.5h3V5.5z"/></g>
<g transform="translate(336,624) scale(4.12)"><path d="M3,5.5H0v-5h3c1.4,0,2.5,1.1,2.5,2.5v0C5.5,4.4,4.4,5.5,3,5.5z"/></g>
<g transform="translate(408,624) scale(4.12)"><path d="M6,5.5H3C1.6,5.5,0.5,4.4,0.5,3v0c0-1.4,1.1-2.5,2.5-2.5h3V5.5z"/></g>
<g transform="translate(432,624) scale(4.12)"><rect y="0.5" width="6" height="5"/></g>
<g transform="translate(456,624) scale(4.12)"><rect y="0.5" width="6" height="5"/></g>
<g transform="translate(480,624) scale(4.12)"><rect y="0.5" width="6" height="5"/></g>
<g transform="translate(504,624) scale(4.12)"><path d="M3,5.5H0v-5h3c1.4,0,2.5,1.1,2.5,2.5v0C5.5,4.4,4.4,5.5,3,5.5z"/></g>
<g transform="translate(552,624) scale(4.12)"><circle cx="3" cy="3" r="2.5"/></g>
<g transform="translate(624,624) scale(4.12)"><path d="M6,5.5H3C1.6,5.5,0.5,4.4,0.5,3v0c0-1.4,1.1-2.5,2.5-2.5h3V5.5z"/></g>
<g transform="translate(648,624) scale(4.12)"><rect y="0.5" width="6" height="5"/></g>
<g transform="translate(672,624) scale(4.12)"><rect y="0.5" width="6" height="5"/></g>
<g transform="translate(696,624) scale(4.12)"><rect y="0.5" width="6" height="5"/></g>
<g transform="translate(720,624) scale(4.12)"><path d="M3,5.5H0v-5h3c1.4,0,2.5,1.1,2.5,2.5v0C5.5,4.4,4.4,5.5,3,5.5z"/></g>
<g transform="translate(792,624) scale(4.12)"><path d="M6,5.5H3C1.6,5.5,0.5,4.4,0.5,3v0c0-1.4,1.1-2.5,2.5-2.5h3V5.5z"/></g>
<g transform="translate(816,624) scale(4.12)"><path d="M3,5.5H0v-5h3c1.4,0,2.5,1.1,2.5,2.5v0C5.5,4.4,4.4,5.5,3,5.5z"/></g>
<g transform="translate(240,648) scale(4.12)"><circle cx="3" cy="3" r="2.5"/></g>
<g transform="translate(312,648) scale(4.12)"><path d="M6,5.5H3C1.6,5.5,0.5,4.4,0.5,3v0c0-1.4,1.1-2.5,2.5-2.5h3V5.5z"/></g>
<g transform="translate(336,648) scale(4.12)"><path d="M3,5.5H0v-5h3c1.4,0,2.5,1.1,2.5,2.5v0C5.5,4.4,4.4,5.5,3,5.5z"/></g>
<g transform="translate(384,648) scale(4.12)"><path d="M6,5.5H3C1.6,5.5,0.5,4.4,0.5,3v0c0-1.4,1.1-2.5,2.5-2.5h3V5.5z"/></g>
<g transform="translate(408,648) scale(4.12)"><path d="M3,5.5H0v-5h3c1.4,0,2.5,1.1,2.5,2.5v0C5.5,4.4,4.4,5.5,3,5.5z"/></g>
<g transform="translate(480,648) scale(4.12)"><path d="M6,5.5H3C1.6,5.5,0.5,4.4,0.5,3v0c0-1.4,1.1-2.5,2.5-2.5h3V5.5z"/></g>
<g transform="translate(504,648) scale(4.12)"><path d="M3,5.5H0v-5h3c1.4,0,2.5,1.1,2.5,2.5v0C5.5,4.4,4.4,5.5,3,5.5z"/></g>
<g transform="translate(552,648) scale(4.12)"><circle cx="3" cy="3" r="2.5"/></g>
<g transform="translate(624,648) scale(4.12)"><circle cx="3" cy="3" r="2.5"/></g>
<g transform="translate(720,648) scale(4.12)"><circle cx="3" cy="3" r="2.5"/></g>
<g transform="translate(768,648) scale(4.12)"><path d="M6,5.5H3C1.6,5.5,0.5,4.4,0.5,3v0c0-1.4,1.1-2.5,2.5-2.5h3V5.5z"/></g>
<g transform="translate(792,648) scale(4.12)"><path d="M3,5.5H0v-5h3c1.4,0,2.5,1.1,2.5,2.5v0C5.5,4.4,4.4,5.5,3,5.5z"/></g>
<g transform="translate(240,672) scale(4.12)"><path d="M6,5.5H3C1.6,5.5,0.5,4.4,0.5,3v0c0-1.4,1.1-2.5,2.5-2.5h3V5.5z"/></g>
<g transform="translate(264,672) scale(4.12)"><path d="M3,5.5H0v-5h3c1.4,0,2.5,1.1,2.5,2.5v0C5.5,4.4,4.4,5.5,3,5.5z"/></g>
<g transform="translate(312,672) scale(4.12)"><path d="M6,5.5H3C1.6,5.5,0.5,4.4,0.5,3v0c0-1.4,1.1-2.5,2.5-2.5h3V5.5z"/></g>
<g transform="translate(336,672) scale(4.12)"><path d="M3,5.5H0v-5h3c1.4,0,2.5,1.1,2.5,2.5v0C5.5,4.4,4.4,5.5,3,5.5z"/></g>
<g transform="translate(408,672) scale(4.12)"><circle cx="3" cy="3" r="2.5"/></g>
<g transform="translate(456,672) scale(4.12)"><circle cx="3" cy="3" r="2.5"/></g>
<g transform="translate(504,672) scale(4.12)"><path d="M6,5.5H3C1.6,5.5,0.5,4.4,0.5,3v0c0-1.4,1.1-2.5,2.5-2.5h3V5.5z"/></g>
<g transform="translate(528,672) scale(4.12)"><rect y="0.5" width="6" height="5"/></g>
<g transform="translate(552,672) scale(4.12)"><rect y="0.5" width="6" height="5"/></g>
<g transform="translate(576,672) scale(4.12)"><rect y="0.5" width="6" height="5"/></g>
<g transform="translate(600,672) scale(4.12)"><rect y="0.5" width="6" height="5"/></g>
<g transform="translate(624,672) scale(4.12)"><path d="M3,5.5H0v-5h3c1.4,0,2.5,1.1,2.5,2.5v0C5.5,4.4,4.4,5.5,3,5.5z"/></g>
<g transform="translate(672,672) scale(4.12)"><circle cx="3" cy="3" r="2.5"/></g>
<g transform="translate(720,672) scale(4.12)"><circle cx="3" cy="3" r="2.5"/></g>
<g transform="translate(768,672) scale(4.12)"><path d="M6,5.5H3C1.6,5.5,0.5,4.4,0.5,3v0c0-1.4,1.1-2.5,2.5-2.5h3V5.5z"/></g>
<g transform="translate(792,672) scale(4.12)"><path d="M3,5.5H0v-5h3c1.4,0,2.5,1.1,2.5,2.5v0C5.5,4.4,4.4,5.5,3,5.5z"/></g>
<g transform="translate(240,696) scale(4.12)"><path d="M6,5.5H3C1.6,5.5,0.5,4.4,0.5,3v0c0-1.4,1.1-2.5,2.5-2.5h3V5.5z"/></g>
<g transform="translate(264,696) scale(4.12)"><rect y="0.5" width="6" height="5"/></g>
<g transform="translate(288,696) scale(4.12)"><path d="M3,5.5H0v-5h3c1.4,0,2.5,1.1,2.5,2.5v0C5.5,4.4,4.4,5.5,3,5.5z"/></g>
<g transform="translate(360,696) scale(4.12)"><path d="M6,5.5H3C1.6,5.5,0.5,4.4,0.5,3v0c0-1.4,1.1-2.5,2.5-2.5h3V5.5z"/></g>
<g transform="translate(384,696) scale(4.12)"><rect y="0.5" width="6" height="5"/></g>
<g transform="translate(408,696) scale(4.12)"><rect y="0.5" width="6" height="5"/></g>
<g transform="translate(432,696) scale(4.12)"><path d="M3,5.5H0v-5h3c1.4,0,2.5,1.1,2.5,2.5v0C5.5,4.4,4.4,5.5,3,5.5z"/></g>
<g transform="translate(480,696) scale(4.12)"><path d="M6,5.5H3C1.6,5.5,0.5,4.4,0.5,3v0c0-1.4,1.1-2.5,2.5-2.5h3V5.5z"/></g>
<g transform="translate(504,696) scale(4.12)"><rect y="0.5" width="6" height="5"/></g>
<g transform="translate(528,696) scale(4.12)"><path d="M3,5.5H0v-5h3c1.4,0,2.5,1.1,2.5,2.5v0C5.5,4.4,4.4,5.5,3,5.5z"/></g>
<g transform="translate(624,696) scale(4.12)"><circle cx="3" cy="3" r="2.5"/></g>
<g transform="translate(720,696) scale(4.12)"><path d="M6,5.5H3C1.6,5.5,0.5,4.4,0.5,3v0c0-1.4,1.1-2.5,2.5-2.5h3V5.5z"/></g>
<g transform="translate(744,696) scale(4.12)"><rect y="0.5" width="6" height="5"/></g>
<g transform="translate(768,696) scale(4.12)"><path d="M3,5.5H0v-5h3c1.4,0,2.5,1.1,2.5,2.5v0C5.5,4.4,4.4,5.5,3,5.5z"/></g>
<g transform="translate(240,720) scale(4.12)"><circle cx="3" cy="3" r="2.5"/></g>
<g transform="translate(336,720) scale(4.12)"><circle cx="3" cy="3" r="2.5"/></g>
<g transform="translate(408,720) scale(4.12)"><circle cx="3" cy="3" r="2.5"/></g>
<g transform="translate(480,720) scale(4.12)"><circle cx="3" cy="3" r="2.5"/></g>
<g transform="translate(528,720) scale(4.12)"><path d="M6,5.5H3C1.6,5.5,0.5,4.4,0.5,3v0c0-1.4,1.1-2.5,2.5-2.5h3V5.5z"/></g>
<g transform="translate(552,720) scale(4.12)"><path d="M3,5.5H0v-5h3c1.4,0,2.5,1.1,2.5,2.5v0C5.5,4.4,4.4,5.5,3,5.5z"/></g>
<g transform="translate(624,720) scale(4.12)"><path d="M6,5.5H3C1.6,5.5,0.5,4.4,0.5,3v0c0-1.4,1.1-2.5,2.5-2.5h3V5.5z"/></g>
<g transform="translate(648,720) scale(4.12)"><rect y="0.5" width="6" height="5"/></g>
<g transform="translate(672,720) scale(4.12)"><rect y="0.5" width="6" height="5"/></g>
<g transform="translate(696,720) scale(4.12)"><rect y="0.5" width="6" height="5"/></g>
<g transform="translate(720,720) scale(4.12)"><rect y="0.5" width="6" height="5"/></g>
<g transform="translate(744,720) scale(4.12)"><path d="M3,5.5H0v-5h3c1.4,0,2.5,1.1,2.5,2.5v0C5.5,4.4,4.4,5.5,3,5.5z"/></g>
<g transform="translate(240,744) scale(4.12)"><circle cx="3" cy="3" r="2.5"/></g>
<g transform="translate(288,744) scale(4.12)"><circle cx="3" cy="3" r="2.5"/></g>
<g transform="translate(336,744) scale(4.12)"><circle cx="3" cy="3" r="2.5"/></g>
<g transform="translate(408,744) scale(4.12)"><path d="M6,5.5H3C1.6,5.5,0.5,4.4,0.5,3v0c0-1.4,1.1-2.5,2.5-2.5h3V5.5z"/></g>
<g transform="translate(432,744) scale(4.12)"><rect y="0.5" width="6" height="5"/></g>
<g transform="translate(456,744) scale(4.12)"><path d="M3,5.5H0v-5h3c1.4,0,2.5,1.1,2.5,2.5v0C5.5,4.4,4.4,5.5,3,5.5z"/></g>
<g transform="translate(528,744) scale(4.12)"><path d="M6,5.5H3C1.6,5.5,0.5,4.4,0.5,3v0c0-1.4,1.1-2.5,2.5-2.5h3V5.5z"/></g>
<g transform="translate(552,744) scale(4.12)"><rect y="0.5" width="6" height="5"/></g>
<g transform="translate(576,744) scale(4.12)"><rect y="0.5" width="6" height="5"/></g>
<g transform="translate(600,744) scale(4.12)"><rect y="0.5" width="6" height="5"/></g>
<g transform="translate(624,744) scale(4.12)"><rect y="0.5" width="6" height="5"/></g>
<g transform="translate(648,744) scale(4.12)"><path d="M3,5.5H0v-5h3c1.4,0,2.5,1.1,2.5,2.5v0C5.5,4.4,4.4,5.5,3,5.5z"/></g>
<g transform="translate(720,744) scale(4.12)"><circle cx="3" cy="3" r="2.5"/></g>
<g transform="translate(240,768) scale(4.12)"><circle cx="3" cy="3" r="2.5"/></g>
<g transform="translate(288,768) scale(4.12)"><path d="M6,5.5H3C1.6,5.5,0.5,4.4,0.5,3v0c0-1.4,1.1-2.5,2.5-2.5h3V5.5z"/></g>
<g transform="translate(312,768) scale(4.12)"><rect y="0.5" width="6" height="5"/></g>
<g transform="translate(336,768) scale(4.12)"><rect y="0.5" width="6" height="5"/></g>
<g transform="translate(360,768) scale(4.12)"><path d="M3,5.5H0v-5h3c1.4,0,2.5,1.1,2.5,2.5v0C5.5,4.4,4.4,5.5,3,5.5z"/></g>
<g transform="translate(432,768) scale(4.12)"><circle cx="3" cy="3" r="2.5"/></g>
<g transform="translate(480,768) scale(4.12)"><path d="M6,5.5H3C1.6,5.5,0.5,4.4,0.5,3v0c0-1.4,1.1-2.5,2.5-2.5h3V5.5z"/></g>
<g transform="translate(504,768) scale(4.12)"><path d="M3,5.5H0v-5h3c1.4,0,2.5,1.1,2.5,2.5v0C5.5,4.4,4.4,5.5,3,5.5z"/></g>
<g transform="translate(576,768) scale(4.12)"><circle cx="3" cy="3" r="2.5"/></g>
<g transform="translate(624,768) scale(4.12)"><circle cx="3" cy="3" r="2.5"/></g>
<g transform="translate(672,768) scale(4.12)"><path d="M6,5.5H3C1.6,5.5,0.5,4.4,0.5,3v0c0-1.4,1.1-2.5,2.5-2.5h3V5.5z"/></g>
<g transform="translate(696,768) scale(4.12)"><path d="M3,5.5H0v-5h3c1.4,0,2.5,1.1,2.5,2.5v0C5.5,4.4,4.4,5.5,3,5.5z"/></g>
<g transform="translate(744,768) scale(4.12)"><circle cx="3" cy="3" r="2.5"/></g>
<g transform="translate(240,792) scale(4.12)"><circle cx="3" cy="3" r="2.5"/></g>
<g transform="translate(288,792) scale(4.12)"><circle cx="3" cy="3" r="2.5"/></g>
<g transform="translate(336,792) scale(4.12)"><path d="M6,5.5H3C1.6,5.5,0.5,4.4,0.5,3v0c0-1.4,1.1-2.5,2.5-2.5h3V5.5z"/></g>
<g transform="translate(360,792) scale(4.12)"><rect y="0.5" width="6" height="5"/></g>
<g transform="translate(384,792) scale(4.12)"><rect y="0.5" width="6" height="5"/></g>
<g transform="translate(408,792) scale(4.12)"><path d="M3,5.5H0v-5h3c1.4,0,2.5,1.1,2.5,2.5v0C5.5,4.4,4.4,5.5,3,5.5z"/></g>
<g transform="translate(480,792) scale(4.12)"><path d="M6,5.5H3C1.6,5.5,0.5,4.4,0.5,3v0c0-1.4,1.1-2.5,2.5-2.5h3V5.5z"/></g>
<g transform="translate(504,792) scale(4.12)"><path d="M3,5.5H0v-5h3c1.4,0,2.5,1.1,2.5,2.5v0C5.5,4.4,4.4,5.5,3,5.5z"/></g>
<g transform="translate(552,792) scale(4.12)"><circle cx="3" cy="3" r="2.5"/></g>
<g transform="translate(672,792) scale(4.12)"><circle cx="3" cy="3" r="2.5"/></g>
<g transform="translate(720,792) scale(4.12)"><path d="M6,5.5H3C1.6,5.5,0.5,4.4,0.5,3v0c0-1.4,1.1-2.5,2.5-2.5h3V5.5z"/></g>
<g transform="translate(744,792) scale(4.12)"><path d="M3,5.5H0v-5h3c1.4,0,2.5,1.1,2.5,2.5v0C5.5,4.4,4.4,5.5,3,5.5z"/></g>
<g transform="translate(264,816) scale(4.12)"><circle cx="3" cy="3" r="2.5"/></g>
<g transform="translate(312,816) scale(4.12)"><circle cx="3" cy="3" r="2.5"/></g>
<g transform="translate(456,816) scale(4.12)"><circle cx="3" cy="3" r="2.5"/></g>
<g transform="translate(504,816) scale(4.12)"><circle cx="3" cy="3" r="2.5"/></g>
<g transform="translate(552,816) scale(4.12)"><path d="M6,5.5H3C1.6,5.5,0.5,4.4,0.5,3v0c0-1.4,1.1-2.5,2.5-2.5h3V5.5z"/></g>
<g transform="translate(576,816) scale(4.12)"><rect y="0.5" width="6" height="5"/></g>
<g transform="translate(600,816) scale(4.12)"><rect y="0.5" width="6" height="5"/></g>
<g transform="translate(624,816) scale(4.12)"><rect y="0.5" width="6" height="5"/></g>
<g transform="translate(648,816) scale(4.12)"><rect y="0.5" width="6" height="5"/></g>
<g transform="translate(672,816) scale(4.12)"><rect y="0.5" width="6" height="5"/></g>
<g transform="translate(696,816) scale(4.12)"><path d="M3,5.5H0v-5h3c1.4,0,2.5,1.1,2.5,2.5v0C5.5,4.4,4.4,5.5,3,5.5z"/></g>
<g transform="translate(768,816) scale(4.12)"><path d="M6,5.5H3C1.6,5.5,0.5,4.4,0.5,3v0c0-1.4,1.1-2.5,2.5-2.5h3V5.5z"/></g>
<g transform="translate(792,816) scale(4.12)"><path d="M3,5.5H0v-5h3c1.4,0,2.5,1.1,2.5,2.5v0C5.5,4.4,4.4,5.5,3,5.5z"/></g>
<g transform="translate(48,48)"><g transform="scale(12)"><path d="M0,0v14h14V0H0z M12,12H2V2h10V12z"/></g></g>
<g transform="translate(672,48)"><g transform="scale(12)"><path d="M0,0v14h14V0H0z M12,12H2V2h10V12z"/></g></g>
<g transform="translate(48,672)"><g transform="scale(12)"><path d="M0,0v14h14V0H0z M12,12H2V2h10V12z"/></g></g>
<g transform="translate(96,96)"><g transform="scale(12)"><path d="M5.1,1.9H0.9C0.4,1.9,0,1.5,0,1v0c0-0.5,0.4-0.9,0.9-0.9h4.2C5.6,0.1,6,0.5,6,1v0C6,1.5,5.6,1.9,5.1,1.9z"/><path d="M5.1,3.9H0.9C0.4,3.9,0,3.5,0,3v0c0-0.5,0.4-0.9,0.9-0.9h4.2C5.6,2.1,6,2.5,6,3v0C6,3.5,5.6,3.9,5.1,3.9z"/><path d="M5.1,5.9H0.9C0.4,5.9,0,5.5,0,5v0c0-0.5,0.4-0.9,0.9-0.9h4.2C5.6,4.1,6,4.5,6,5v0C6,5.5,5.6,5.9,5.1,5.9z"/></g></g>
<g transform="translate(720,96)"><g transform="scale(12)"><path d="M5.1,1.9H0.9C0.4,1.9,0,1.5,0,1v0c0-0.5,0.4-0.9,0.9-0.9h4.2C5.6,0.1,6,0.5,6,1v0C6,1.5,5.6,1.9,5.1,1.9z"/><path d="M5.1,3.9H0.9C0.4,3.9,0,3.5,0,3v0c0-0.5,0.4-0.9,0.9-0.9h4.2C5.6,2.1,6,2.5,6,3v0C6,3.5,5.6,3.9,5.1,3.9z"/><path d="M5.1,5.9H0.9C0.4,5.9,0,5.5,0,5v0c0-0.5,0.4-0.9,0.9-0.9h4.2C5.6,4.1,6,4.5,6,5v0C6,5.5,5.6,5.9,5.1,5.9z"/></g></g>
<g transform="translate(96,720)"><g transform="scale(12)"><path d="M5.1,1.9H0.9C0.4,1.9,0,1.5,0,1v0c0-0.5,0.4-0.9,0.9-0.9h4.2C5.6,0.1,6,0.5,6,1v0C6,1.5,5.6,1.9,5.1,1.9z"/><path d="M5.1,3.9H0.9C0.4,3.9,0,3.5,0,3v0c0-0.5,0.4-0.9,0.9-0.9h4.2C5.6,2.1,6,2.5,6,3v0C6,3.5,5.6,3.9,5.1,3.9z"/><path d="M5.1,5.9H0.9C0.4,5.9,0,5.5,0,5v0c0-0.5,0.4-0.9,0.9-0.9h4.2C5.6,4.1,6,4.5,6,5v0C6,5.5,5.6,5.9,5.1,5.9z"/></g></g>
</g></svg>
